<?xml version="1.0" standalone="no"?><!DOCTYPE svg PUBLIC "-//W3C//DTD SVG 1.1//EN" "http://www.w3.org/Graphics/SVG/1.1/DTD/svg11.dtd"><svg t="1754445043639" class="icon" viewBox="0 0 1024 1024" version="1.1" xmlns="http://www.w3.org/2000/svg" p-id="7791" xmlns:xlink="http://www.w3.org/1999/xlink" width="64" height="64"><path d="M660.77 343.3m-231.4 0a231.4 231.4 0 1 0 462.8 0 231.4 231.4 0 1 0-462.8 0Z" fill="#CAFFD8" p-id="7792"></path><path d="M308 726.24H142a35 35 0 0 1-35-35V444.5a35 35 0 0 1 35-35h136v70H177v176.74h131zM888 726.24H722v-70h131V479.5H752v-70h136a35 35 0 0 1 35 35v246.74a35 35 0 0 1-35 35z" fill="#333333" p-id="7793"></path><path d="M757 874H494v-70h228V289H307.65v428h-70V254a35 35 0 0 1 35-35H757a35 35 0 0 1 35 35v585a35 35 0 0 1-35 35z" fill="#333333" p-id="7794"></path><path d="M394.73 656.09h246.18v70H394.73z" fill="#333333" p-id="7795"></path></svg>